<?xml version="1.0" encoding="UTF-8"?>
<!-- Created with Inkscape (http://www.inkscape.org/) -->
<svg width="250mm" height="250mm" version="1.1" viewBox="0 0 250 250" xmlns="http://www.w3.org/2000/svg">
 <g stroke="#000">
  <path transform="matrix(.26458 0 0 .26458 12.96 -18.183)" d="m635.9 664.61-213.13 122.26-212.45-123.45.68641-245.71 213.13-122.26 212.45 123.45z" fill-opacity="0" stroke-width="6.6142"/>
  <rect x="10.492" y="15.049" width="229.02" height="219.9" fill-opacity="0" stroke-width="1.75"/>
  <g fill="none" stroke-width="1.75">
   <g>
    <path d="m10.492 15.049 58.299 77.288-58.299 142.61 58.117-77.603-58.117-142.3"/>
    <path d="m239.51 15.049-58.117 77.603 58.117 142.3-58.299-77.288 58.299-142.61"/>
    <path d="m10.492 15.049 114.69 44.941 114.33-44.941"/>
    <path d="m10.492 234.95 114.33-44.941 114.69 44.941"/>
    <path d="m125.18 59.99v-44.941"/>
    <path d="m124.82 190.01v44.941"/>
   </g>
   <path d="m68.79 92.338 56.391-77.288 56.21 77.603 58.117 32.298-58.299 32.713-56.391 77.288-56.21-77.603-58.117-32.298 58.299-32.713" stroke-linejoin="bevel"/>
  </g>
 </g>
</svg>
