<?xml version="1.0" encoding="UTF-8"?>
<!-- Created with Inkscape (http://www.inkscape.org/) -->
<svg width="250mm" height="250mm" version="1.1" viewBox="0 0 250 250" xmlns="http://www.w3.org/2000/svg">
 <g stroke="#000">
  <rect x="25.867" y="25.867" width="198.27" height="198.27" fill-opacity="0" stroke-linejoin="bevel" stroke-width="1.75"/>
  <path transform="matrix(.19031 0 0 .20707 69.819 60.203)" d="m292.83 611.5-260.01-146.8-2.8709-298.57 257.14-151.77 260.01 146.8 2.8709 298.57z" fill-opacity="0" stroke-linejoin="bevel" stroke-width="8.8157"/>
  <g fill="none" stroke-width="1.75">
   <path d="m75.519 224.08 50.027-37.254 98.586 37.308-49.652-68.735 50.358-61.825-50.904-67.367-49.481 36.969-48.935-37.349-50.073 68.776 50.619 61.825-50.198 67.705 99.679-37.308-99.72-30.398 49.693-61.825-49.652-68.735 98.586 37.308 99.679-37.308-50.198 67.705 50.904 61.825-50.904 68.302-48.388-36.875 99.293-31.427-50.904-129.19-148.49 68.396 50.073 129.48-49.693-67.652" stroke-linejoin="bevel"/>
   <path d="m76.065 156.43 49.481 67.652 48.935-68.682"/>
   <g stroke-linejoin="bevel">
    <path d="m75.519 25.826 149.32 67.747"/>
    <path d="m25.826 156.43 49.693-130.6"/>
    <path d="m75.519 94.602 48.935-68.396 49.481 67.367"/>
   </g>
   <g>
    <path d="m224.84 93.573-50.904 130.13"/>
    <path d="m75.519 94.602-49.652 129.53"/>
    <path d="m173.93 93.573 50.198 130.56"/>
    <path d="m224.13 25.867-49.652 129.53"/>
    <path d="m25.867 25.867 50.198 130.56"/>
    <path d="m25.446 94.602 99.007-68.396 100.39 67.367"/>
    <path d="m25.826 156.43 99.72 67.652 99.293-68.682"/>
   </g>
  </g>
 </g>
</svg>
