<svg width="225mm" height="225mm" version="1.1" viewBox="0 0 225 225" xmlns="http://www.w3.org/2000/svg">
 <g fill="none">
  <g stroke="#000">
   <path transform="matrix(.26458 0 0 .26458 24.387 12.994)" d="m658.87 565.57-327.02 187.45-325.85-189.48 1.1704-376.93 327.02-187.45 325.85 189.48z" stroke-opacity=".9959" stroke-width="9.4488"/>
   <g stroke-width="2.5">
    <path className="Lines" d="m26.286 62.367c57.476 33.422 114.95 66.844 172.43 100.27"/>
    <path className="Lines" d="m199.02 62.903c-57.682 33.064-115.36 66.129-173.05 99.193"/>
    <path className="Lines" d="m112.81 12.77c-.20644 66.486-.41289 132.97-.61933 199.46"/>
    <path className="Lines" d="m26.286 62.367c57.579.17879 115.16.35757 172.74.53636"/>
    <path className="Lines" d="m25.977 162.1c57.579.17879 115.16.35757 172.74.53636"/>
    <path className="Lines" d="m199.02 62.903c-28.944 49.775-57.889 99.551-86.833 149.33"/>
    <path className="Lines" d="m26.286 62.367c28.635 49.954 57.269 99.908 85.904 149.86"/>
    <path className="Lines" d="m112.81 12.77c-28.944 49.775-57.889 99.551-86.833 149.33"/>
    <path className="Lines" d="m112.81 12.77c28.635 49.954 57.269 99.908 85.904 149.86"/>
   </g>
  </g>
  <path className="MB" d="m25.977 162.1.30967-99.73 28.784 50.052 57.739-99.649-.61933 199.46 86.523-49.597-85.914-50.973 86.224-48.756-86.214-50.133" stroke="#fffa00" stroke-linecap="round" stroke-linejoin="round" stroke-width="2.5"/>
 </g>
</svg>
